<svg xmlns="http://www.w3.org/2000/svg" version="1.1" id="Calque_1" x="0px" y="0px" viewBox="0.0 0.0 700.0 211.0" style="enable-background:new 0 0 699.46 210.73;" xml:space="preserve" width="220" height="66">
<style type="text/css">
	.st0{fill:#295371;}
	.st1{fill:#EFB942;}
	.st2{fill:#FFFFFF;}
	.st3{fill:#9FBF44;}
	.st4{fill:#AD4F90;}
</style>
<g>
	<path class="st0" d="M210.67,159.2c5.12,0,9.64-1.36,13.56-4.08c3.92-2.72,6.8-6.36,8.64-10.92h6.6c-1.04,3.04-2.5,5.84-4.38,8.4   c-1.88,2.56-4.08,4.76-6.6,6.6c-2.52,1.84-5.3,3.3-8.34,4.38c-3.04,1.08-6.2,1.62-9.48,1.62c-4.24,0-8.18-0.78-11.82-2.34   c-3.64-1.56-6.8-3.68-9.48-6.36c-2.68-2.68-4.8-5.84-6.36-9.48c-1.56-3.64-2.34-7.58-2.34-11.82c0-4.16,0.78-8.08,2.34-11.76   c1.56-3.68,3.68-6.86,6.36-9.54c2.68-2.68,5.84-4.8,9.48-6.36c3.64-1.56,7.58-2.34,11.82-2.34c4.16,0,8.08,0.78,11.76,2.34   c3.68,1.56,6.86,3.68,9.54,6.36c2.68,2.68,4.8,5.86,6.36,9.54c1.56,3.68,2.34,7.6,2.34,11.76v3h-10.8h-43.2   c0.48,3.04,1.42,5.84,2.82,8.4c1.4,2.56,3.18,4.76,5.34,6.6c2.16,1.84,4.58,3.3,7.26,4.38C204.77,158.66,207.63,159.2,210.67,159.2   z M210.67,111.2c-3.04,0-5.9,0.54-8.58,1.62c-2.68,1.08-5.1,2.54-7.26,4.38c-2.16,1.84-3.94,4.06-5.34,6.66   c-1.4,2.6-2.34,5.38-2.82,8.34h48c-0.48-2.96-1.42-5.74-2.82-8.34c-1.4-2.6-3.18-4.82-5.34-6.66c-2.16-1.84-4.6-3.3-7.32-4.38   C216.47,111.74,213.63,111.2,210.67,111.2z" />
	<path class="st0" d="M277.87,105.2c4.08,0,7.92,0.78,11.52,2.34c3.6,1.56,6.78,3.68,9.54,6.36c2.76,2.68,4.94,5.86,6.54,9.54   c1.6,3.68,2.4,7.6,2.4,11.76c0,4.24-0.8,8.18-2.4,11.82c-1.6,3.64-3.78,6.8-6.54,9.48c-2.76,2.68-5.94,4.8-9.54,6.36   c-3.6,1.56-7.44,2.34-11.52,2.34c-4.24,0-8.18-0.78-11.82-2.34c-3.64-1.56-6.8-3.68-9.48-6.36c-2.68-2.68-4.8-5.84-6.36-9.48   c-1.56-3.64-2.34-7.58-2.34-11.82c0-4.16,0.78-8.08,2.34-11.76c1.56-3.68,3.68-6.86,6.36-9.54c2.68-2.68,5.84-4.8,9.48-6.36   C269.69,105.98,273.63,105.2,277.87,105.2z M277.87,159.2c3.28,0,6.38-0.64,9.3-1.92c2.92-1.28,5.46-3,7.62-5.16   s3.88-4.7,5.16-7.62c1.28-2.92,1.92-6.02,1.92-9.3c0-3.28-0.64-6.38-1.92-9.3c-1.28-2.92-3-5.46-5.16-7.62s-4.7-3.88-7.62-5.16   c-2.92-1.28-6.02-1.92-9.3-1.92c-3.28,0-6.38,0.64-9.3,1.92c-2.92,1.28-5.46,3-7.62,5.16s-3.88,4.7-5.16,7.62   c-1.28,2.92-1.92,6.02-1.92,9.3c0,3.28,0.64,6.38,1.92,9.3c1.28,2.92,3,5.46,5.16,7.62s4.7,3.88,7.62,5.16   C271.49,158.56,274.59,159.2,277.87,159.2z" />
	<path class="st0" d="M345.07,105.2c4.08,0,7.92,0.8,11.52,2.4c3.6,1.6,6.78,3.78,9.54,6.54c2.76,2.76,4.94,5.94,6.54,9.54   c1.6,3.6,2.4,7.44,2.4,11.52v30h-6v-30c0-3.28-0.64-6.38-1.92-9.3c-1.28-2.92-3-5.46-5.16-7.62s-4.7-3.88-7.62-5.16   c-2.92-1.28-6.02-1.92-9.3-1.92c-3.28,0-6.38,0.64-9.3,1.92c-2.92,1.28-5.46,3-7.62,5.16s-3.88,4.7-5.16,7.62   c-1.28,2.92-1.92,6.02-1.92,9.3v30h-6v-30c0-4.08,0.78-7.92,2.34-11.52c1.56-3.6,3.68-6.78,6.36-9.54   c2.68-2.76,5.84-4.94,9.48-6.54C336.89,106,340.83,105.2,345.07,105.2z" />
	<path class="st0" d="M412.27,165.2c-4.24,0-8.18-0.78-11.82-2.34c-3.64-1.56-6.8-3.68-9.48-6.36c-2.68-2.68-4.8-5.84-6.36-9.48   c-1.56-3.64-2.34-7.58-2.34-11.82v-30h6v30c0,3.28,0.64,6.38,1.92,9.3c1.28,2.92,3,5.46,5.16,7.62s4.7,3.88,7.62,5.16   c2.92,1.28,6.02,1.92,9.3,1.92c3.28,0,6.38-0.64,9.3-1.92c2.92-1.28,5.46-3,7.62-5.16s3.88-4.7,5.16-7.62   c1.28-2.92,1.92-6.02,1.92-9.3v-30h6v30c0,4.24-0.8,8.18-2.4,11.82c-1.6,3.64-3.78,6.8-6.54,9.48c-2.76,2.68-5.94,4.8-9.54,6.36   C420.19,164.42,416.35,165.2,412.27,165.2z" />
	<path class="st0" d="M533.47,105.2c4.16,0,8.08,0.78,11.76,2.34c3.68,1.56,6.86,3.68,9.54,6.36c2.68,2.68,4.8,5.86,6.36,9.54   c1.56,3.68,2.34,7.6,2.34,11.76v30h-6v-30c0-3.28-0.64-6.38-1.92-9.3c-1.28-2.92-3-5.46-5.16-7.62s-4.7-3.88-7.62-5.16   c-2.92-1.28-6.02-1.92-9.3-1.92c-3.28,0-6.38,0.64-9.3,1.92c-2.92,1.28-5.46,3-7.62,5.16s-3.88,4.7-5.16,7.62   c-1.28,2.92-1.92,6.02-1.92,9.3v30h-6v-30c0-3.28-0.64-6.38-1.92-9.3c-1.28-2.92-3-5.46-5.16-7.62s-4.7-3.88-7.62-5.16   c-2.92-1.28-6.02-1.92-9.3-1.92c-3.28,0-6.38,0.64-9.3,1.92c-2.92,1.28-5.46,3-7.62,5.16s-3.88,4.7-5.16,7.62   c-1.28,2.92-1.92,6.02-1.92,9.3v30h-6v-30c0-4.16,0.8-8.08,2.4-11.76c1.6-3.68,3.78-6.86,6.54-9.54c2.76-2.68,5.94-4.8,9.54-6.36   c3.6-1.56,7.44-2.34,11.52-2.34c2.96,0,5.82,0.42,8.58,1.26s5.3,2.02,7.62,3.54c2.32,1.52,4.4,3.3,6.24,5.34   c1.84,2.04,3.36,4.26,4.56,6.66c1.2-2.4,2.74-4.62,4.62-6.66c1.88-2.04,4-3.82,6.36-5.34c2.36-1.52,4.9-2.7,7.62-3.54   C527.79,105.62,530.59,105.2,533.47,105.2z" />
	<path class="st0" d="M630.67,105.2v29.4v0.6v30c0,4.24-0.78,8.18-2.34,11.82c-1.56,3.64-3.68,6.8-6.36,9.48   c-2.68,2.68-5.86,4.8-9.54,6.36c-3.68,1.56-7.6,2.34-11.76,2.34c-4.24,0-8.18-0.78-11.82-2.34c-3.64-1.56-6.8-3.68-9.48-6.36   c-2.68-2.68-4.8-5.84-6.36-9.48c-1.56-3.64-2.34-7.58-2.34-11.82h6c0,3.28,0.64,6.38,1.92,9.3c1.28,2.92,3,5.46,5.16,7.62   s4.7,3.88,7.62,5.16c2.92,1.28,6.02,1.92,9.3,1.92c3.28,0,6.38-0.64,9.3-1.92c2.92-1.28,5.46-3,7.62-5.16s3.88-4.7,5.16-7.62   c1.28-2.92,1.92-6.02,1.92-9.3v-12c-2.72,3.6-6.2,6.5-10.44,8.7c-4.24,2.2-8.76,3.3-13.56,3.3c-4.24,0-8.18-0.8-11.82-2.4   c-3.64-1.6-6.8-3.78-9.48-6.54c-2.68-2.76-4.8-5.94-6.36-9.54c-1.56-3.6-2.34-7.44-2.34-11.52v-0.6v-29.4h6v29.4v0.6   c0,3.28,0.64,6.38,1.92,9.3c1.28,2.92,3,5.46,5.16,7.62s4.7,3.88,7.62,5.16c2.92,1.28,6.02,1.92,9.3,1.92   c3.28,0,6.38-0.64,9.3-1.92c2.92-1.28,5.46-3,7.62-5.16s3.88-4.7,5.16-7.62c1.28-2.92,1.92-6.02,1.92-9.3v-0.6v-29.4H630.67z" />
</g>
<path class="st1" d="M171.25,180.2H48.7c-9.39,0-17.01-7.61-17.01-17.01V25.47h122.56c9.39,0,17.01,7.61,17.01,17.01V180.2z" />
<rect x="58.94" y="36.14" class="st0" width="9.95" height="9.95" />
<g>
	<path class="st1" d="M651.42,147.56c1.96-2,4.34-3,7.14-3c2.96,0,5.42,1,7.38,3c1.96,2,2.94,4.44,2.94,7.32s-0.96,5.28-2.88,7.2   s-4.32,2.88-7.2,2.88s-5.32-0.96-7.32-2.88s-3-4.36-3-7.32C648.48,151.96,649.46,149.56,651.42,147.56z" />
</g>
<g>
	<path class="st2" d="M74.68,88.91v75.74H56.34V64.97c0-2.89,0.79-5.2,2.38-6.93c1.59-1.73,3.87-2.59,6.86-2.59   c1.87,0,3.62,0.4,5.25,1.19c1.63,0.79,3.29,2.26,4.97,4.41l53.34,70.14V55.45h18.2v99.82c0,7-2.38,10.5-7.14,10.5   c-2.33,0-4.39-0.54-6.16-1.61c-1.77-1.07-3.73-2.73-5.88-4.97L74.68,88.91z" />
</g>
<rect x="74.94" y="36.14" class="st3" width="9.95" height="9.95" />
<rect x="90.94" y="36.14" class="st4" width="9.95" height="9.95" />
</svg>